<svg id="svg" xmlns="http://www.w3.org/2000/svg" xmlns:xlink="http://www.w3.org/1999/xlink"
    width="400" height="402.3121387283237" viewBox="0, 0, 400,402.3121387283237" version="1.1">
    <g id="svgg">
        <path id="path0"
            d="M345.472 4.491 C 343.306 4.838,338.159 6.222,333.526 7.703 C 329.455 9.004,328.279 9.210,323.699 9.427 C 307.747 10.182,294.859 12.046,263.969 18.065 C 258.565 19.118,250.588 20.644,246.243 21.454 L 238.343 22.929 223.314 22.874 C 215.048 22.844,199.875 22.513,189.595 22.138 C 135.832 20.179,106.384 21.913,77.992 28.709 C 63.408 32.200,43.649 39.321,40.335 42.281 C 38.725 43.719,36.990 44.555,31.985 46.305 C 12.680 53.054,7.113 64.127,10.006 90.019 C 10.973 98.678,12.090 105.672,15.170 122.351 C 17.719 136.154,18.470 141.551,18.733 147.977 C 18.842 150.626,19.021 153.227,19.133 153.757 L 19.335 154.721 20.248 153.580 C 21.403 152.135,21.543 152.299,22.225 155.911 C 23.008 160.061,24.047 162.071,26.213 163.627 C 27.216 164.347,28.415 165.669,28.907 166.597 L 29.794 168.268 29.059 173.248 C 28.469 177.241,28.324 180.403,28.324 189.210 C 28.324 200.380,28.421 201.674,30.303 215.524 C 31.441 223.901,31.651 223.175,27.383 225.637 C 21.294 229.149,19.208 233.361,18.170 244.237 C 17.721 248.951,17.464 249.381,15.280 249.081 C 12.517 248.702,12.173 249.453,12.109 256.000 C 12.070 260.020,11.787 262.973,11.038 267.172 C 9.878 273.673,9.787 276.508,10.614 280.347 C 11.097 282.585,11.120 283.635,10.751 286.513 C 10.256 290.381,10.473 296.172,11.395 303.661 C 11.721 306.310,12.122 312.033,12.285 316.378 C 12.549 323.386,12.677 324.461,13.420 325.900 C 14.451 327.896,14.469 329.505,13.515 334.365 C 13.106 336.447,12.653 339.205,12.509 340.494 L 12.246 342.838 14.457 346.411 C 27.007 366.701,36.547 371.660,64.162 372.251 C 84.534 372.686,89.791 373.819,98.358 379.620 C 101.058 381.448,100.675 381.505,101.899 379.094 C 104.437 374.095,105.056 374.241,104.889 379.802 C 104.771 383.691,104.942 384.306,105.880 383.369 C 106.581 382.668,107.386 383.587,108.855 386.766 C 110.847 391.077,112.518 389.688,112.529 383.711 C 112.536 380.026,112.784 379.191,113.870 379.191 C 115.421 379.191,115.842 374.031,114.407 372.596 C 113.478 371.667,113.578 369.780,114.643 368.155 C 115.870 366.282,116.378 367.996,117.518 377.855 C 118.857 389.441,120.314 393.550,120.136 385.241 C 120.045 381.001,120.094 380.650,120.860 380.039 C 121.311 379.678,122.062 378.215,122.527 376.786 C 123.517 373.750,123.869 373.394,124.395 374.901 C 124.801 376.067,125.838 382.488,126.224 386.224 C 126.470 388.614,126.804 388.965,127.461 387.523 C 129.567 382.901,132.311 382.513,137.210 386.144 C 142.087 389.760,143.599 389.906,146.250 387.019 C 148.188 384.909,149.247 384.776,151.447 386.368 C 152.290 386.977,153.527 387.866,154.196 388.343 C 156.158 389.741,157.352 389.508,158.635 387.477 C 160.132 385.107,161.160 385.282,161.704 387.999 C 161.881 388.883,162.218 389.288,162.926 389.465 C 164.387 389.832,176.220 389.321,183.237 388.587 C 192.541 387.615,204.544 387.675,209.349 388.719 C 213.082 389.529,213.139 389.530,217.056 388.826 C 231.737 386.188,242.606 385.787,278.227 386.573 C 309.993 387.274,324.994 386.306,341.998 382.460 C 347.083 381.310,349.323 380.296,365.772 371.704 L 378.365 365.125 379.520 361.657 C 382.381 353.063,384.504 338.478,385.746 318.882 C 385.961 315.491,386.303 297.630,386.506 279.191 C 386.710 260.751,387.052 240.896,387.267 235.067 C 391.424 122.255,389.159 54.944,380.472 33.141 C 371.871 11.553,360.333 2.108,345.472 4.491 M236.994 46.006 C 285.308 52.601,309.224 80.722,300.941 121.195 C 295.839 146.122,275.881 171.421,249.822 185.994 L 247.289 187.411 248.730 188.214 C 281.031 206.216,297.486 234.768,294.832 268.208 C 291.949 304.540,267.350 332.240,227.914 343.558 C 205.300 350.049,183.124 350.404,145.472 344.880 C 121.822 341.410,117.709 341.633,105.588 347.047 C 99.036 349.973,95.975 349.118,96.505 344.509 C 97.119 339.169,101.134 334.205,110.790 326.847 C 122.758 317.726,127.507 311.701,129.844 302.672 C 130.279 300.990,136.613 259.470,143.920 210.405 C 158.130 114.984,157.713 117.544,159.706 113.487 C 166.615 99.429,188.734 84.978,196.890 89.196 C 199.191 90.386,199.010 91.563,195.816 96.180 C 189.537 105.256,189.834 104.003,183.102 149.904 L 178.214 183.237 197.095 183.337 L 215.975 183.437 220.223 182.057 C 250.732 172.148,272.413 141.663,270.084 111.949 C 268.003 85.382,246.317 70.841,207.316 69.861 C 166.922 68.846,134.455 83.077,110.424 112.331 C 102.659 121.784,100.063 123.475,97.056 121.034 C 94.389 118.870,98.881 104.397,105.552 93.657 C 121.589 67.839,157.328 49.402,198.183 45.871 C 200.772 45.647,203.497 45.397,204.239 45.316 C 207.927 44.911,232.813 45.435,236.994 46.006 M174.566 204.768 C 174.566 206.015,162.175 290.351,161.463 293.952 C 159.672 303.005,156.767 309.707,152.174 315.385 C 150.677 317.236,149.529 318.829,149.625 318.925 C 150.874 320.174,167.727 322.037,182.981 322.611 C 238.877 324.717,262.399 310.584,264.204 273.812 C 265.643 244.505,251.136 220.294,224.112 206.900 L 218.743 204.239 196.655 204.239 C 178.185 204.239,174.566 204.326,174.566 204.768 "
            stroke="none" fill="#ef0454" fill-rule="evenodd"></path>
        <path id="path1"
            d="M320.328 9.525 C 320.910 9.613,321.864 9.613,322.447 9.525 C 323.030 9.436,322.553 9.364,321.387 9.364 C 320.222 9.364,319.745 9.436,320.328 9.525 M314.744 9.906 C 315.224 9.999,315.917 9.995,316.286 9.899 C 316.654 9.802,316.262 9.727,315.414 9.731 C 314.566 9.735,314.265 9.814,314.744 9.906 M367.614 11.657 C 369.211 13.358,369.557 13.664,369.557 13.375 C 369.557 13.313,368.733 12.489,367.726 11.545 L 365.896 9.827 367.614 11.657 M135.562 21.479 C 136.682 21.557,138.416 21.556,139.416 21.477 C 140.415 21.398,139.499 21.334,137.380 21.335 C 135.260 21.336,134.442 21.401,135.562 21.479 M163.873 21.479 C 165.092 21.556,167.086 21.556,168.304 21.479 C 169.523 21.403,168.526 21.340,166.089 21.340 C 163.651 21.340,162.654 21.403,163.873 21.479 M126.108 21.856 C 126.691 21.944,127.645 21.944,128.227 21.856 C 128.810 21.768,128.333 21.695,127.168 21.695 C 126.002 21.695,125.525 21.768,126.108 21.856 M179.105 21.863 C 180.011 21.944,181.398 21.943,182.187 21.860 C 182.977 21.777,182.235 21.711,180.539 21.712 C 178.844 21.713,178.198 21.781,179.105 21.863 M120.135 22.237 C 120.612 22.329,121.392 22.329,121.869 22.237 C 122.346 22.145,121.956 22.070,121.002 22.070 C 120.048 22.070,119.658 22.145,120.135 22.237 M190.848 22.246 C 191.643 22.329,192.943 22.329,193.738 22.246 C 194.533 22.163,193.882 22.095,192.293 22.095 C 190.703 22.095,190.053 22.163,190.848 22.246 M115.318 22.616 C 115.689 22.713,116.296 22.713,116.667 22.616 C 117.038 22.519,116.734 22.440,115.992 22.440 C 115.250 22.440,114.947 22.519,115.318 22.616 M202.805 22.634 C 203.819 22.714,205.379 22.713,206.274 22.632 C 207.168 22.551,206.339 22.486,204.432 22.487 C 202.524 22.489,201.792 22.555,202.805 22.634 M221.291 23.024 C 224.205 23.090,228.974 23.090,231.888 23.024 C 234.803 22.959,232.418 22.905,226.590 22.905 C 220.761 22.905,218.377 22.959,221.291 23.024 M206.462 45.366 C 207.154 45.452,208.195 45.450,208.774 45.362 C 209.353 45.274,208.786 45.204,207.514 45.206 C 206.243 45.208,205.769 45.280,206.462 45.366 M225.915 45.363 C 226.498 45.451,227.452 45.451,228.035 45.363 C 228.618 45.274,228.141 45.202,226.975 45.202 C 225.809 45.202,225.332 45.274,225.915 45.363 M200.679 45.745 C 201.158 45.837,201.852 45.833,202.220 45.737 C 202.589 45.640,202.197 45.565,201.349 45.569 C 200.501 45.574,200.200 45.652,200.679 45.745 M196.243 46.123 C 196.614 46.220,197.221 46.220,197.592 46.123 C 197.962 46.026,197.659 45.947,196.917 45.947 C 196.175 45.947,195.872 46.026,196.243 46.123 M17.134 54.432 L 15.222 56.455 17.245 54.542 C 19.125 52.765,19.445 52.408,19.157 52.408 C 19.096 52.408,18.186 53.319,17.134 54.432 M201.460 69.650 C 202.793 69.725,204.874 69.725,206.084 69.648 C 207.295 69.572,206.204 69.511,203.661 69.511 C 201.118 69.512,200.127 69.574,201.460 69.650 M387.373 70.520 C 387.373 71.262,387.452 71.566,387.549 71.195 C 387.646 70.824,387.646 70.217,387.549 69.846 C 387.452 69.475,387.373 69.778,387.373 70.520 M192.582 70.021 C 193.059 70.113,193.839 70.113,194.316 70.021 C 194.793 69.930,194.403 69.854,193.449 69.854 C 192.495 69.854,192.105 69.930,192.582 70.021 M213.006 70.021 C 213.483 70.113,214.263 70.113,214.740 70.021 C 215.217 69.930,214.827 69.854,213.873 69.854 C 212.919 69.854,212.529 69.930,213.006 70.021 M188.150 70.401 C 188.521 70.497,189.128 70.497,189.499 70.401 C 189.870 70.304,189.566 70.224,188.825 70.224 C 188.083 70.224,187.779 70.304,188.150 70.401 M217.823 70.401 C 218.194 70.497,218.801 70.497,219.171 70.401 C 219.542 70.304,219.239 70.224,218.497 70.224 C 217.755 70.224,217.452 70.304,217.823 70.401 M387.774 75.530 C 387.774 76.484,387.849 76.874,387.941 76.397 C 388.032 75.920,388.032 75.140,387.941 74.663 C 387.849 74.186,387.774 74.576,387.774 75.530 M9.000 78.805 C 8.999 80.713,9.064 81.542,9.145 80.647 C 9.226 79.753,9.227 78.192,9.147 77.179 C 9.067 76.166,9.001 76.898,9.000 78.805 M116.367 80.058 L 113.873 82.659 116.474 80.165 C 118.890 77.849,119.251 77.457,118.968 77.457 C 118.909 77.457,117.738 78.627,116.367 80.058 M388.169 82.081 C 388.169 83.247,388.242 83.724,388.330 83.141 C 388.418 82.558,388.418 81.604,388.330 81.021 C 388.242 80.438,388.169 80.915,388.169 82.081 M9.338 85.934 C 9.338 86.676,9.417 86.980,9.514 86.609 C 9.611 86.238,9.611 85.631,9.514 85.260 C 9.417 84.889,9.338 85.193,9.338 85.934 M388.566 91.522 C 388.567 93.006,388.637 93.565,388.721 92.766 C 388.804 91.966,388.803 90.753,388.717 90.068 C 388.632 89.384,388.564 90.039,388.566 91.522 M122.712 99.133 L 121.580 100.385 122.832 99.254 C 124.000 98.199,124.262 97.881,123.964 97.881 C 123.898 97.881,123.334 98.444,122.712 99.133 M388.961 101.927 C 388.960 103.834,389.025 104.663,389.106 103.769 C 389.187 102.874,389.188 101.314,389.108 100.301 C 389.029 99.288,388.963 100.019,388.961 101.927 M167.630 102.697 C 166.694 103.651,166.015 104.432,166.121 104.432 C 166.227 104.432,167.079 103.651,168.015 102.697 C 168.951 101.744,169.631 100.963,169.525 100.963 C 169.419 100.963,168.566 101.744,167.630 102.697 M302.265 106.358 C 302.265 108.796,302.328 109.793,302.404 108.574 C 302.481 107.355,302.481 105.361,302.404 104.143 C 302.328 102.924,302.265 103.921,302.265 106.358 M114.045 107.803 L 112.717 109.249 114.162 107.921 C 114.957 107.190,115.607 106.540,115.607 106.475 C 115.607 106.181,115.281 106.458,114.045 107.803 M270.250 113.295 C 270.250 114.461,270.323 114.937,270.411 114.355 C 270.499 113.772,270.499 112.818,270.411 112.235 C 270.323 111.652,270.250 112.129,270.250 113.295 M389.378 122.736 C 389.378 128.247,389.432 130.447,389.498 127.627 C 389.564 124.806,389.564 120.297,389.498 117.607 C 389.432 114.918,389.378 117.225,389.378 122.736 M96.051 118.112 C 96.055 118.960,96.134 119.261,96.226 118.782 C 96.318 118.302,96.315 117.609,96.219 117.240 C 96.122 116.872,96.047 117.264,96.051 118.112 M270.254 119.268 C 270.256 120.539,270.328 121.013,270.414 120.321 C 270.500 119.628,270.498 118.588,270.410 118.009 C 270.322 117.429,270.252 117.996,270.254 119.268 M388.985 151.445 C 388.985 155.366,389.042 156.970,389.112 155.010 C 389.182 153.049,389.182 149.841,389.112 147.881 C 389.042 145.920,388.985 147.524,388.985 151.445 M18.602 147.206 C 18.602 148.160,18.677 148.550,18.769 148.073 C 18.861 147.596,18.861 146.816,18.769 146.339 C 18.677 145.862,18.602 146.252,18.602 147.206 M251.035 162.331 L 249.904 163.584 251.156 162.452 C 251.845 161.829,252.408 161.266,252.408 161.200 C 252.408 160.902,252.091 161.164,251.035 162.331 M278.396 163.102 L 277.264 164.355 278.516 163.223 C 279.205 162.600,279.769 162.037,279.769 161.970 C 279.769 161.673,279.451 161.935,278.396 163.102 M246.026 167.341 L 244.894 168.593 246.146 167.462 C 246.835 166.839,247.399 166.276,247.399 166.209 C 247.399 165.912,247.081 166.174,246.026 167.341 M270.689 170.809 L 269.557 172.062 270.809 170.930 C 271.498 170.307,272.062 169.744,272.062 169.677 C 272.062 169.380,271.744 169.642,270.689 170.809 M388.607 187.669 C 388.607 193.073,388.661 195.284,388.727 192.582 C 388.793 189.880,388.793 185.458,388.727 182.755 C 388.661 180.053,388.607 182.264,388.607 187.669 M27.901 188.825 C 27.901 192.110,27.960 193.454,28.032 191.811 C 28.104 190.169,28.104 187.481,28.032 185.838 C 27.960 184.196,27.901 185.539,27.901 188.825 M187.380 183.718 C 192.625 183.779,201.209 183.779,206.455 183.718 C 211.700 183.658,207.408 183.608,196.917 183.608 C 186.426 183.608,182.134 183.658,187.380 183.718 M28.228 199.422 C 28.232 200.270,28.311 200.571,28.404 200.092 C 28.496 199.612,28.492 198.919,28.396 198.550 C 28.299 198.182,28.224 198.574,28.228 199.422 M271.869 205.780 C 273.127 207.052,274.244 208.092,274.350 208.092 C 274.456 208.092,273.513 207.052,272.254 205.780 C 270.996 204.509,269.880 203.468,269.774 203.468 C 269.668 203.468,270.611 204.509,271.869 205.780 M388.193 209.634 C 388.193 211.647,388.258 212.471,388.337 211.464 C 388.417 210.458,388.417 208.810,388.337 207.803 C 388.258 206.797,388.193 207.620,388.193 209.634 M242.004 218.603 C 242.004 218.661,243.348 220.005,244.990 221.590 L 247.977 224.470 245.096 221.484 C 242.421 218.710,242.004 218.321,242.004 218.603 M387.798 221.580 C 387.798 223.170,387.866 223.820,387.949 223.025 C 388.032 222.230,388.032 220.930,387.949 220.135 C 387.866 219.340,387.798 219.990,387.798 221.580 M387.415 231.792 C 387.417 233.487,387.484 234.133,387.566 233.227 C 387.647 232.320,387.646 230.933,387.563 230.144 C 387.481 229.355,387.414 230.096,387.415 231.792 M18.227 242.004 C 18.227 243.170,18.299 243.646,18.388 243.064 C 18.476 242.481,18.476 241.527,18.388 240.944 C 18.299 240.361,18.227 240.838,18.227 242.004 M387.042 244.509 C 387.043 246.840,387.106 247.744,387.183 246.518 C 387.260 245.291,387.259 243.384,387.181 242.279 C 387.104 241.174,387.041 242.177,387.042 244.509 M294.502 252.794 C 294.502 253.536,294.581 253.839,294.678 253.468 C 294.775 253.097,294.775 252.490,294.678 252.119 C 294.581 251.749,294.502 252.052,294.502 252.794 M12.073 256.840 C 12.074 258.324,12.144 258.883,12.227 258.084 C 12.311 257.284,12.309 256.070,12.224 255.386 C 12.139 254.702,12.071 255.356,12.073 256.840 M294.946 261.272 C 294.946 263.921,295.008 265.005,295.083 263.680 C 295.158 262.355,295.158 260.188,295.083 258.863 C 295.008 257.539,294.946 258.622,294.946 261.272 M386.689 277.264 C 386.689 286.378,386.740 290.051,386.801 285.427 C 386.863 280.803,386.863 273.346,386.801 268.856 C 386.739 264.367,386.689 268.150,386.689 277.264 M264.066 264.547 C 264.071 265.395,264.150 265.696,264.242 265.217 C 264.334 264.738,264.330 264.044,264.234 263.676 C 264.137 263.307,264.062 263.699,264.066 264.547 M294.502 270.135 C 294.502 270.877,294.581 271.180,294.678 270.809 C 294.775 270.438,294.775 269.831,294.678 269.461 C 294.581 269.090,294.502 269.393,294.502 270.135 M264.074 276.686 C 264.074 277.640,264.149 278.030,264.241 277.553 C 264.333 277.076,264.333 276.296,264.241 275.819 C 264.149 275.342,264.074 275.732,264.074 276.686 M10.502 296.917 C 10.506 297.765,10.585 298.066,10.677 297.587 C 10.769 297.108,10.766 296.414,10.669 296.046 C 10.573 295.677,10.498 296.069,10.502 296.917 M386.264 307.322 C 386.263 309.229,386.328 310.058,386.409 309.164 C 386.490 308.269,386.491 306.709,386.411 305.696 C 386.331 304.682,386.265 305.414,386.264 307.322 M12.051 312.524 C 12.051 313.478,12.126 313.868,12.218 313.391 C 12.310 312.914,12.310 312.134,12.218 311.657 C 12.126 311.180,12.051 311.570,12.051 312.524 M385.861 316.570 C 385.863 317.842,385.935 318.316,386.021 317.623 C 386.107 316.931,386.105 315.890,386.017 315.311 C 385.929 314.732,385.859 315.299,385.861 316.570 M271.476 318.786 L 268.015 322.351 271.580 318.891 C 274.891 315.677,275.320 315.222,275.040 315.222 C 274.983 315.222,273.379 316.826,271.476 318.786 M120.412 318.786 L 118.112 321.195 120.520 318.895 C 121.845 317.629,122.929 316.546,122.929 316.486 C 122.929 316.201,122.548 316.549,120.412 318.786 M167.538 322.045 C 168.018 322.137,168.711 322.134,169.080 322.037 C 169.448 321.941,169.056 321.866,168.208 321.870 C 167.360 321.874,167.059 321.953,167.538 322.045 M385.461 323.314 C 385.461 324.268,385.537 324.658,385.628 324.181 C 385.720 323.704,385.720 322.924,385.628 322.447 C 385.537 321.970,385.461 322.360,385.461 323.314 M172.741 322.435 C 173.327 322.523,174.194 322.521,174.668 322.429 C 175.142 322.338,174.663 322.265,173.603 322.268 C 172.543 322.271,172.156 322.346,172.741 322.435 M208.960 322.424 C 209.330 322.521,209.937 322.521,210.308 322.424 C 210.679 322.327,210.376 322.247,209.634 322.247 C 208.892 322.247,208.589 322.327,208.960 322.424 M180.840 322.827 C 181.853 322.907,183.414 322.906,184.308 322.825 C 185.203 322.744,184.374 322.679,182.466 322.680 C 180.559 322.681,179.827 322.747,180.840 322.827 M202.608 322.823 C 203.301 322.908,204.341 322.907,204.920 322.819 C 205.499 322.731,204.933 322.661,203.661 322.663 C 202.389 322.665,201.915 322.737,202.608 322.823 M385.061 328.324 C 385.061 329.066,385.140 329.369,385.237 328.998 C 385.334 328.627,385.334 328.020,385.237 327.649 C 385.140 327.278,385.061 327.582,385.061 328.324 M384.675 332.563 C 384.675 333.304,384.754 333.608,384.851 333.237 C 384.948 332.866,384.948 332.259,384.851 331.888 C 384.754 331.517,384.675 331.821,384.675 332.563 M122.651 342.480 C 123.664 342.560,125.225 342.559,126.120 342.478 C 127.014 342.397,126.185 342.332,124.277 342.333 C 122.370 342.334,121.638 342.401,122.651 342.480 M96.436 345.472 C 96.441 346.320,96.519 346.621,96.612 346.142 C 96.704 345.663,96.700 344.969,96.604 344.601 C 96.507 344.232,96.432 344.624,96.436 345.472 M168.882 347.857 C 169.253 347.954,169.860 347.954,170.231 347.857 C 170.602 347.760,170.299 347.681,169.557 347.681 C 168.815 347.681,168.512 347.760,168.882 347.857 M173.319 348.249 C 173.798 348.342,174.492 348.338,174.860 348.242 C 175.228 348.145,174.836 348.070,173.988 348.074 C 173.141 348.078,172.839 348.157,173.319 348.249 M201.638 348.243 C 202.009 348.339,202.616 348.339,202.987 348.243 C 203.357 348.146,203.054 348.066,202.312 348.066 C 201.570 348.066,201.267 348.146,201.638 348.243 M178.907 348.639 C 179.493 348.727,180.360 348.725,180.834 348.633 C 181.308 348.542,180.829 348.470,179.769 348.472 C 178.709 348.475,178.321 348.550,178.907 348.639 M196.248 348.639 C 196.834 348.727,197.701 348.725,198.175 348.633 C 198.649 348.542,198.170 348.470,197.110 348.472 C 196.050 348.475,195.662 348.550,196.248 348.639 M50.578 372.135 C 50.949 372.232,51.556 372.232,51.927 372.135 C 52.298 372.038,51.994 371.958,51.252 371.958 C 50.511 371.958,50.207 372.038,50.578 372.135 M60.019 372.542 C 62.828 372.608,67.423 372.608,70.231 372.542 C 73.039 372.477,70.742 372.423,65.125 372.423 C 59.509 372.423,57.211 372.477,60.019 372.542 M112.640 382.274 C 112.640 383.439,112.712 383.916,112.800 383.333 C 112.888 382.750,112.888 381.797,112.800 381.214 C 112.712 380.631,112.640 381.108,112.640 382.274 M119.951 383.044 C 119.951 383.998,120.026 384.388,120.118 383.911 C 120.210 383.434,120.210 382.654,120.118 382.177 C 120.026 381.700,119.951 382.091,119.951 383.044 M125.723 383.622 C 125.728 384.470,125.807 384.772,125.899 384.292 C 125.991 383.813,125.987 383.119,125.891 382.751 C 125.795 382.382,125.719 382.775,125.723 383.622 M319.942 386.007 C 320.313 386.104,320.920 386.104,321.291 386.007 C 321.662 385.911,321.358 385.831,320.617 385.831 C 319.875 385.831,319.571 385.911,319.942 386.007 M244.395 386.413 C 245.817 386.486,248.245 386.487,249.790 386.414 C 251.336 386.340,250.173 386.280,247.206 386.279 C 244.239 386.279,242.974 386.339,244.395 386.413 M258.111 386.414 C 259.869 386.486,262.644 386.485,264.276 386.413 C 265.909 386.341,264.470 386.283,261.079 386.283 C 257.688 386.284,256.352 386.343,258.111 386.414 M315.130 386.400 C 315.609 386.492,316.303 386.488,316.671 386.392 C 317.040 386.295,316.647 386.220,315.800 386.224 C 314.952 386.229,314.650 386.308,315.130 386.400 M235.356 386.784 C 235.833 386.876,236.614 386.876,237.091 386.784 C 237.567 386.693,237.177 386.617,236.224 386.617 C 235.270 386.617,234.880 386.693,235.356 386.784 M277.168 386.797 C 278.386 386.874,280.381 386.874,281.599 386.797 C 282.818 386.721,281.821 386.658,279.383 386.658 C 276.946 386.658,275.949 386.721,277.168 386.797 M307.418 386.791 C 308.107 386.877,309.234 386.877,309.923 386.791 C 310.612 386.706,310.048 386.636,308.671 386.636 C 307.293 386.636,306.729 386.706,307.418 386.791 M230.154 387.164 C 230.525 387.260,231.132 387.260,231.503 387.164 C 231.874 387.067,231.570 386.987,230.829 386.987 C 230.087 386.987,229.783 387.067,230.154 387.164 M120.321 388.439 C 120.321 389.181,120.400 389.485,120.497 389.114 C 120.594 388.743,120.594 388.136,120.497 387.765 C 120.400 387.394,120.321 387.697,120.321 388.439 M195.488 387.955 C 196.928 388.029,199.182 388.029,200.498 387.953 C 201.814 387.878,200.636 387.818,197.881 387.818 C 195.125 387.819,194.049 387.880,195.488 387.955 M187.962 388.326 C 188.441 388.419,189.135 388.415,189.504 388.319 C 189.872 388.222,189.480 388.147,188.632 388.151 C 187.784 388.155,187.483 388.234,187.962 388.326 M183.526 388.705 C 183.897 388.802,184.504 388.802,184.875 388.705 C 185.246 388.608,184.942 388.529,184.200 388.529 C 183.459 388.529,183.155 388.608,183.526 388.705 M179.287 389.090 C 179.658 389.187,180.265 389.187,180.636 389.090 C 181.007 388.993,180.703 388.914,179.961 388.914 C 179.220 388.914,178.916 388.993,179.287 389.090 M174.085 389.482 C 174.562 389.574,175.342 389.574,175.819 389.482 C 176.296 389.390,175.906 389.315,174.952 389.315 C 173.998 389.315,173.608 389.390,174.085 389.482 "
            stroke="none" fill="#ef0454" fill-rule="evenodd"></path>
    </g>
</svg>