<svg width="400" height="403" viewBox="0 0 400 403" fill="none" xmlns="http://www.w3.org/2000/svg">
<path fill-rule="evenodd" clip-rule="evenodd" d="M345.472 4.49101C343.306 4.83801 338.159 6.22201 333.526 7.70301C329.455 9.00401 328.279 9.21001 323.699 9.42701C307.747 10.182 294.859 12.046 263.969 18.065C258.565 19.118 250.588 20.644 246.243 21.454L238.343 22.929L223.314 22.874C215.048 22.844 199.875 22.513 189.595 22.138C135.832 20.179 106.384 21.913 77.992 28.709C63.408 32.2 43.649 39.321 40.335 42.281C38.725 43.719 36.99 44.555 31.985 46.305C12.68 53.054 7.11301 64.127 10.006 90.019C10.973 98.678 12.09 105.672 15.17 122.351C17.719 136.154 18.47 141.551 18.733 147.977C18.842 150.626 19.021 153.227 19.133 153.757L19.335 154.721L20.248 153.58C21.403 152.135 21.543 152.299 22.225 155.911C23.008 160.061 24.047 162.071 26.213 163.627C27.216 164.347 28.415 165.669 28.907 166.597L29.794 168.268L29.059 173.248C28.469 177.241 28.324 180.403 28.324 189.21C28.324 200.38 28.421 201.674 30.303 215.524C31.441 223.901 31.651 223.175 27.383 225.637C21.294 229.149 19.208 233.361 18.17 244.237C17.721 248.951 17.464 249.381 15.28 249.081C12.517 248.702 12.173 249.453 12.109 256C12.07 260.02 11.787 262.973 11.038 267.172C9.87801 273.673 9.78701 276.508 10.614 280.347C11.097 282.585 11.12 283.635 10.751 286.513C10.256 290.381 10.473 296.172 11.395 303.661C11.721 306.31 12.122 312.033 12.285 316.378C12.549 323.386 12.677 324.461 13.42 325.9C14.451 327.896 14.469 329.505 13.515 334.365C13.106 336.447 12.653 339.205 12.509 340.494L12.246 342.838L14.457 346.411C27.007 366.701 36.547 371.66 64.162 372.251C84.534 372.686 89.791 373.819 98.358 379.62C101.058 381.448 100.675 381.505 101.899 379.094C104.437 374.095 105.056 374.241 104.889 379.802C104.771 383.691 104.942 384.306 105.88 383.369C106.581 382.668 107.386 383.587 108.855 386.766C110.847 391.077 112.518 389.688 112.529 383.711C112.536 380.026 112.784 379.191 113.87 379.191C115.421 379.191 115.842 374.031 114.407 372.596C113.478 371.667 113.578 369.78 114.643 368.155C115.87 366.282 116.378 367.996 117.518 377.855C118.857 389.441 120.314 393.55 120.136 385.241C120.045 381.001 120.094 380.65 120.86 380.039C121.311 379.678 122.062 378.215 122.527 376.786C123.517 373.75 123.869 373.394 124.395 374.901C124.801 376.067 125.838 382.488 126.224 386.224C126.47 388.614 126.804 388.965 127.461 387.523C129.567 382.901 132.311 382.513 137.21 386.144C142.087 389.76 143.599 389.906 146.25 387.019C148.188 384.909 149.247 384.776 151.447 386.368C152.29 386.977 153.527 387.866 154.196 388.343C156.158 389.741 157.352 389.508 158.635 387.477C160.132 385.107 161.16 385.282 161.704 387.999C161.881 388.883 162.218 389.288 162.926 389.465C164.387 389.832 176.22 389.321 183.237 388.587C192.541 387.615 204.544 387.675 209.349 388.719C213.082 389.529 213.139 389.53 217.056 388.826C231.737 386.188 242.606 385.787 278.227 386.573C309.993 387.274 324.994 386.306 341.998 382.46C347.083 381.31 349.323 380.296 365.772 371.704L378.365 365.125L379.52 361.657C382.381 353.063 384.504 338.478 385.746 318.882C385.961 315.491 386.303 297.63 386.506 279.191C386.71 260.751 387.052 240.896 387.267 235.067C391.424 122.255 389.159 54.944 380.472 33.141C371.871 11.553 360.333 2.10801 345.472 4.49101ZM236.994 46.006C285.308 52.601 309.224 80.722 300.941 121.195C295.839 146.122 275.881 171.421 249.822 185.994L247.289 187.411L248.73 188.214C281.031 206.216 297.486 234.768 294.832 268.208C291.949 304.54 267.35 332.24 227.914 343.558C205.3 350.049 183.124 350.404 145.472 344.88C121.822 341.41 117.709 341.633 105.588 347.047C99.036 349.973 95.975 349.118 96.505 344.509C97.119 339.169 101.134 334.205 110.79 326.847C122.758 317.726 127.507 311.701 129.844 302.672C130.279 300.99 136.613 259.47 143.92 210.405C158.13 114.984 157.713 117.544 159.706 113.487C166.615 99.429 188.734 84.978 196.89 89.196C199.191 90.386 199.01 91.563 195.816 96.18C189.537 105.256 189.834 104.003 183.102 149.904L178.214 183.237L197.095 183.337L215.975 183.437L220.223 182.057C250.732 172.148 272.413 141.663 270.084 111.949C268.003 85.382 246.317 70.841 207.316 69.861C166.922 68.846 134.455 83.077 110.424 112.331C102.659 121.784 100.063 123.475 97.056 121.034C94.389 118.87 98.881 104.397 105.552 93.657C121.589 67.839 157.328 49.402 198.183 45.871C200.772 45.647 203.497 45.397 204.239 45.316C207.927 44.911 232.813 45.435 236.994 46.006ZM174.566 204.768C174.566 206.015 162.175 290.351 161.463 293.952C159.672 303.005 156.767 309.707 152.174 315.385C150.677 317.236 149.529 318.829 149.625 318.925C150.874 320.174 167.727 322.037 182.981 322.611C238.877 324.717 262.399 310.584 264.204 273.812C265.643 244.505 251.136 220.294 224.112 206.9L218.743 204.239H196.655C178.185 204.239 174.566 204.326 174.566 204.768Z" fill="#EF0454"/>
<path fill-rule="evenodd" clip-rule="evenodd" d="M320.328 9.52501C320.91 9.61301 321.864 9.61301 322.447 9.52501C323.03 9.43601 322.553 9.36401 321.387 9.36401C320.222 9.36401 319.745 9.43601 320.328 9.52501ZM314.744 9.90601C315.224 9.99901 315.917 9.99501 316.286 9.89901C316.654 9.80201 316.262 9.72701 315.414 9.73101C314.566 9.73501 314.265 9.81401 314.744 9.90601ZM367.614 11.657C369.211 13.358 369.557 13.664 369.557 13.375C369.557 13.313 368.733 12.489 367.726 11.545L365.896 9.82701L367.614 11.657ZM135.562 21.479C136.682 21.557 138.416 21.556 139.416 21.477C140.415 21.398 139.499 21.334 137.38 21.335C135.26 21.336 134.442 21.401 135.562 21.479ZM163.873 21.479C165.092 21.556 167.086 21.556 168.304 21.479C169.523 21.403 168.526 21.34 166.089 21.34C163.651 21.34 162.654 21.403 163.873 21.479ZM126.108 21.856C126.691 21.944 127.645 21.944 128.227 21.856C128.81 21.768 128.333 21.695 127.168 21.695C126.002 21.695 125.525 21.768 126.108 21.856ZM179.105 21.863C180.011 21.944 181.398 21.943 182.187 21.86C182.977 21.777 182.235 21.711 180.539 21.712C178.844 21.713 178.198 21.781 179.105 21.863ZM120.135 22.237C120.612 22.329 121.392 22.329 121.869 22.237C122.346 22.145 121.956 22.07 121.002 22.07C120.048 22.07 119.658 22.145 120.135 22.237ZM190.848 22.246C191.643 22.329 192.943 22.329 193.738 22.246C194.533 22.163 193.882 22.095 192.293 22.095C190.703 22.095 190.053 22.163 190.848 22.246ZM115.318 22.616C115.689 22.713 116.296 22.713 116.667 22.616C117.038 22.519 116.734 22.44 115.992 22.44C115.25 22.44 114.947 22.519 115.318 22.616ZM202.805 22.634C203.819 22.714 205.379 22.713 206.274 22.632C207.168 22.551 206.339 22.486 204.432 22.487C202.524 22.489 201.792 22.555 202.805 22.634ZM221.291 23.024C224.205 23.09 228.974 23.09 231.888 23.024C234.803 22.959 232.418 22.905 226.59 22.905C220.761 22.905 218.377 22.959 221.291 23.024ZM206.462 45.366C207.154 45.452 208.195 45.45 208.774 45.362C209.353 45.274 208.786 45.204 207.514 45.206C206.243 45.208 205.769 45.28 206.462 45.366ZM225.915 45.363C226.498 45.451 227.452 45.451 228.035 45.363C228.618 45.274 228.141 45.202 226.975 45.202C225.809 45.202 225.332 45.274 225.915 45.363ZM200.679 45.745C201.158 45.837 201.852 45.833 202.22 45.737C202.589 45.64 202.197 45.565 201.349 45.569C200.501 45.574 200.2 45.652 200.679 45.745ZM196.243 46.123C196.614 46.22 197.221 46.22 197.592 46.123C197.962 46.026 197.659 45.947 196.917 45.947C196.175 45.947 195.872 46.026 196.243 46.123ZM17.134 54.432L15.222 56.455L17.245 54.542C19.125 52.765 19.445 52.408 19.157 52.408C19.096 52.408 18.186 53.319 17.134 54.432ZM201.46 69.65C202.793 69.725 204.874 69.725 206.084 69.648C207.295 69.572 206.204 69.511 203.661 69.511C201.118 69.512 200.127 69.574 201.46 69.65ZM387.373 70.52C387.373 71.262 387.452 71.566 387.549 71.195C387.646 70.824 387.646 70.217 387.549 69.846C387.452 69.475 387.373 69.778 387.373 70.52ZM192.582 70.021C193.059 70.113 193.839 70.113 194.316 70.021C194.793 69.93 194.403 69.854 193.449 69.854C192.495 69.854 192.105 69.93 192.582 70.021ZM213.006 70.021C213.483 70.113 214.263 70.113 214.74 70.021C215.217 69.93 214.827 69.854 213.873 69.854C212.919 69.854 212.529 69.93 213.006 70.021ZM188.15 70.401C188.521 70.497 189.128 70.497 189.499 70.401C189.87 70.304 189.566 70.224 188.825 70.224C188.083 70.224 187.779 70.304 188.15 70.401ZM217.823 70.401C218.194 70.497 218.801 70.497 219.171 70.401C219.542 70.304 219.239 70.224 218.497 70.224C217.755 70.224 217.452 70.304 217.823 70.401ZM387.774 75.53C387.774 76.484 387.849 76.874 387.941 76.397C388.032 75.92 388.032 75.14 387.941 74.663C387.849 74.186 387.774 74.576 387.774 75.53ZM9.00001 78.805C8.99901 80.713 9.06401 81.542 9.14501 80.647C9.22601 79.753 9.22701 78.192 9.14701 77.179C9.06701 76.166 9.00101 76.898 9.00001 78.805ZM116.367 80.058L113.873 82.659L116.474 80.165C118.89 77.849 119.251 77.457 118.968 77.457C118.909 77.457 117.738 78.627 116.367 80.058ZM388.169 82.081C388.169 83.247 388.242 83.724 388.33 83.141C388.418 82.558 388.418 81.604 388.33 81.021C388.242 80.438 388.169 80.915 388.169 82.081ZM9.33801 85.934C9.33801 86.676 9.41701 86.98 9.51401 86.609C9.61101 86.238 9.61101 85.631 9.51401 85.26C9.41701 84.889 9.33801 85.193 9.33801 85.934ZM388.566 91.522C388.567 93.006 388.637 93.565 388.721 92.766C388.804 91.966 388.803 90.753 388.717 90.068C388.632 89.384 388.564 90.039 388.566 91.522ZM122.712 99.133L121.58 100.385L122.832 99.254C124 98.199 124.262 97.881 123.964 97.881C123.898 97.881 123.334 98.444 122.712 99.133ZM388.961 101.927C388.96 103.834 389.025 104.663 389.106 103.769C389.187 102.874 389.188 101.314 389.108 100.301C389.029 99.288 388.963 100.019 388.961 101.927ZM167.63 102.697C166.694 103.651 166.015 104.432 166.121 104.432C166.227 104.432 167.079 103.651 168.015 102.697C168.951 101.744 169.631 100.963 169.525 100.963C169.419 100.963 168.566 101.744 167.63 102.697ZM302.265 106.358C302.265 108.796 302.328 109.793 302.404 108.574C302.481 107.355 302.481 105.361 302.404 104.143C302.328 102.924 302.265 103.921 302.265 106.358ZM114.045 107.803L112.717 109.249L114.162 107.921C114.957 107.19 115.607 106.54 115.607 106.475C115.607 106.181 115.281 106.458 114.045 107.803ZM270.25 113.295C270.25 114.461 270.323 114.937 270.411 114.355C270.499 113.772 270.499 112.818 270.411 112.235C270.323 111.652 270.25 112.129 270.25 113.295ZM389.378 122.736C389.378 128.247 389.432 130.447 389.498 127.627C389.564 124.806 389.564 120.297 389.498 117.607C389.432 114.918 389.378 117.225 389.378 122.736ZM96.051 118.112C96.055 118.96 96.134 119.261 96.226 118.782C96.318 118.302 96.315 117.609 96.219 117.24C96.122 116.872 96.047 117.264 96.051 118.112ZM270.254 119.268C270.256 120.539 270.328 121.013 270.414 120.321C270.5 119.628 270.498 118.588 270.41 118.009C270.322 117.429 270.252 117.996 270.254 119.268ZM388.985 151.445C388.985 155.366 389.042 156.97 389.112 155.01C389.182 153.049 389.182 149.841 389.112 147.881C389.042 145.92 388.985 147.524 388.985 151.445ZM18.602 147.206C18.602 148.16 18.677 148.55 18.769 148.073C18.861 147.596 18.861 146.816 18.769 146.339C18.677 145.862 18.602 146.252 18.602 147.206ZM251.035 162.331L249.904 163.584L251.156 162.452C251.845 161.829 252.408 161.266 252.408 161.2C252.408 160.902 252.091 161.164 251.035 162.331ZM278.396 163.102L277.264 164.355L278.516 163.223C279.205 162.6 279.769 162.037 279.769 161.97C279.769 161.673 279.451 161.935 278.396 163.102ZM246.026 167.341L244.894 168.593L246.146 167.462C246.835 166.839 247.399 166.276 247.399 166.209C247.399 165.912 247.081 166.174 246.026 167.341ZM270.689 170.809L269.557 172.062L270.809 170.93C271.498 170.307 272.062 169.744 272.062 169.677C272.062 169.38 271.744 169.642 270.689 170.809ZM388.607 187.669C388.607 193.073 388.661 195.284 388.727 192.582C388.793 189.88 388.793 185.458 388.727 182.755C388.661 180.053 388.607 182.264 388.607 187.669ZM27.901 188.825C27.901 192.11 27.96 193.454 28.032 191.811C28.104 190.169 28.104 187.481 28.032 185.838C27.96 184.196 27.901 185.539 27.901 188.825ZM187.38 183.718C192.625 183.779 201.209 183.779 206.455 183.718C211.7 183.658 207.408 183.608 196.917 183.608C186.426 183.608 182.134 183.658 187.38 183.718ZM28.228 199.422C28.232 200.27 28.311 200.571 28.404 200.092C28.496 199.612 28.492 198.919 28.396 198.55C28.299 198.182 28.224 198.574 28.228 199.422ZM271.869 205.78C273.127 207.052 274.244 208.092 274.35 208.092C274.456 208.092 273.513 207.052 272.254 205.78C270.996 204.509 269.88 203.468 269.774 203.468C269.668 203.468 270.611 204.509 271.869 205.78ZM388.193 209.634C388.193 211.647 388.258 212.471 388.337 211.464C388.417 210.458 388.417 208.81 388.337 207.803C388.258 206.797 388.193 207.62 388.193 209.634ZM242.004 218.603C242.004 218.661 243.348 220.005 244.99 221.59L247.977 224.47L245.096 221.484C242.421 218.71 242.004 218.321 242.004 218.603ZM387.798 221.58C387.798 223.17 387.866 223.82 387.949 223.025C388.032 222.23 388.032 220.93 387.949 220.135C387.866 219.34 387.798 219.99 387.798 221.58ZM387.415 231.792C387.417 233.487 387.484 234.133 387.566 233.227C387.647 232.32 387.646 230.933 387.563 230.144C387.481 229.355 387.414 230.096 387.415 231.792ZM18.227 242.004C18.227 243.17 18.299 243.646 18.388 243.064C18.476 242.481 18.476 241.527 18.388 240.944C18.299 240.361 18.227 240.838 18.227 242.004ZM387.042 244.509C387.043 246.84 387.106 247.744 387.183 246.518C387.26 245.291 387.259 243.384 387.181 242.279C387.104 241.174 387.041 242.177 387.042 244.509ZM294.502 252.794C294.502 253.536 294.581 253.839 294.678 253.468C294.775 253.097 294.775 252.49 294.678 252.119C294.581 251.749 294.502 252.052 294.502 252.794ZM12.073 256.84C12.074 258.324 12.144 258.883 12.227 258.084C12.311 257.284 12.309 256.07 12.224 255.386C12.139 254.702 12.071 255.356 12.073 256.84ZM294.946 261.272C294.946 263.921 295.008 265.005 295.083 263.68C295.158 262.355 295.158 260.188 295.083 258.863C295.008 257.539 294.946 258.622 294.946 261.272ZM386.689 277.264C386.689 286.378 386.74 290.051 386.801 285.427C386.863 280.803 386.863 273.346 386.801 268.856C386.739 264.367 386.689 268.15 386.689 277.264ZM264.066 264.547C264.071 265.395 264.15 265.696 264.242 265.217C264.334 264.738 264.33 264.044 264.234 263.676C264.137 263.307 264.062 263.699 264.066 264.547ZM294.502 270.135C294.502 270.877 294.581 271.18 294.678 270.809C294.775 270.438 294.775 269.831 294.678 269.461C294.581 269.09 294.502 269.393 294.502 270.135ZM264.074 276.686C264.074 277.64 264.149 278.03 264.241 277.553C264.333 277.076 264.333 276.296 264.241 275.819C264.149 275.342 264.074 275.732 264.074 276.686ZM10.502 296.917C10.506 297.765 10.585 298.066 10.677 297.587C10.769 297.108 10.766 296.414 10.669 296.046C10.573 295.677 10.498 296.069 10.502 296.917ZM386.264 307.322C386.263 309.229 386.328 310.058 386.409 309.164C386.49 308.269 386.491 306.709 386.411 305.696C386.331 304.682 386.265 305.414 386.264 307.322ZM12.051 312.524C12.051 313.478 12.126 313.868 12.218 313.391C12.31 312.914 12.31 312.134 12.218 311.657C12.126 311.18 12.051 311.57 12.051 312.524ZM385.861 316.57C385.863 317.842 385.935 318.316 386.021 317.623C386.107 316.931 386.105 315.89 386.017 315.311C385.929 314.732 385.859 315.299 385.861 316.57ZM271.476 318.786L268.015 322.351L271.58 318.891C274.891 315.677 275.32 315.222 275.04 315.222C274.983 315.222 273.379 316.826 271.476 318.786ZM120.412 318.786L118.112 321.195L120.52 318.895C121.845 317.629 122.929 316.546 122.929 316.486C122.929 316.201 122.548 316.549 120.412 318.786ZM167.538 322.045C168.018 322.137 168.711 322.134 169.08 322.037C169.448 321.941 169.056 321.866 168.208 321.87C167.36 321.874 167.059 321.953 167.538 322.045ZM385.461 323.314C385.461 324.268 385.537 324.658 385.628 324.181C385.72 323.704 385.72 322.924 385.628 322.447C385.537 321.97 385.461 322.36 385.461 323.314ZM172.741 322.435C173.327 322.523 174.194 322.521 174.668 322.429C175.142 322.338 174.663 322.265 173.603 322.268C172.543 322.271 172.156 322.346 172.741 322.435ZM208.96 322.424C209.33 322.521 209.937 322.521 210.308 322.424C210.679 322.327 210.376 322.247 209.634 322.247C208.892 322.247 208.589 322.327 208.96 322.424ZM180.84 322.827C181.853 322.907 183.414 322.906 184.308 322.825C185.203 322.744 184.374 322.679 182.466 322.68C180.559 322.681 179.827 322.747 180.84 322.827ZM202.608 322.823C203.301 322.908 204.341 322.907 204.92 322.819C205.499 322.731 204.933 322.661 203.661 322.663C202.389 322.665 201.915 322.737 202.608 322.823ZM385.061 328.324C385.061 329.066 385.14 329.369 385.237 328.998C385.334 328.627 385.334 328.02 385.237 327.649C385.14 327.278 385.061 327.582 385.061 328.324ZM384.675 332.563C384.675 333.304 384.754 333.608 384.851 333.237C384.948 332.866 384.948 332.259 384.851 331.888C384.754 331.517 384.675 331.821 384.675 332.563ZM122.651 342.48C123.664 342.56 125.225 342.559 126.12 342.478C127.014 342.397 126.185 342.332 124.277 342.333C122.37 342.334 121.638 342.401 122.651 342.48ZM96.436 345.472C96.441 346.32 96.519 346.621 96.612 346.142C96.704 345.663 96.7 344.969 96.604 344.601C96.507 344.232 96.432 344.624 96.436 345.472ZM168.882 347.857C169.253 347.954 169.86 347.954 170.231 347.857C170.602 347.76 170.299 347.681 169.557 347.681C168.815 347.681 168.512 347.76 168.882 347.857ZM173.319 348.249C173.798 348.342 174.492 348.338 174.86 348.242C175.228 348.145 174.836 348.07 173.988 348.074C173.141 348.078 172.839 348.157 173.319 348.249ZM201.638 348.243C202.009 348.339 202.616 348.339 202.987 348.243C203.357 348.146 203.054 348.066 202.312 348.066C201.57 348.066 201.267 348.146 201.638 348.243ZM178.907 348.639C179.493 348.727 180.36 348.725 180.834 348.633C181.308 348.542 180.829 348.47 179.769 348.472C178.709 348.475 178.321 348.55 178.907 348.639ZM196.248 348.639C196.834 348.727 197.701 348.725 198.175 348.633C198.649 348.542 198.17 348.47 197.11 348.472C196.05 348.475 195.662 348.55 196.248 348.639ZM50.578 372.135C50.949 372.232 51.556 372.232 51.927 372.135C52.298 372.038 51.994 371.958 51.252 371.958C50.511 371.958 50.207 372.038 50.578 372.135ZM60.019 372.542C62.828 372.608 67.423 372.608 70.231 372.542C73.039 372.477 70.742 372.423 65.125 372.423C59.509 372.423 57.211 372.477 60.019 372.542ZM112.64 382.274C112.64 383.439 112.712 383.916 112.8 383.333C112.888 382.75 112.888 381.797 112.8 381.214C112.712 380.631 112.64 381.108 112.64 382.274ZM119.951 383.044C119.951 383.998 120.026 384.388 120.118 383.911C120.21 383.434 120.21 382.654 120.118 382.177C120.026 381.7 119.951 382.091 119.951 383.044ZM125.723 383.622C125.728 384.47 125.807 384.772 125.899 384.292C125.991 383.813 125.987 383.119 125.891 382.751C125.795 382.382 125.719 382.775 125.723 383.622ZM319.942 386.007C320.313 386.104 320.92 386.104 321.291 386.007C321.662 385.911 321.358 385.831 320.617 385.831C319.875 385.831 319.571 385.911 319.942 386.007ZM244.395 386.413C245.817 386.486 248.245 386.487 249.79 386.414C251.336 386.34 250.173 386.28 247.206 386.279C244.239 386.279 242.974 386.339 244.395 386.413ZM258.111 386.414C259.869 386.486 262.644 386.485 264.276 386.413C265.909 386.341 264.47 386.283 261.079 386.283C257.688 386.284 256.352 386.343 258.111 386.414ZM315.13 386.4C315.609 386.492 316.303 386.488 316.671 386.392C317.04 386.295 316.647 386.22 315.8 386.224C314.952 386.229 314.65 386.308 315.13 386.4ZM235.356 386.784C235.833 386.876 236.614 386.876 237.091 386.784C237.567 386.693 237.177 386.617 236.224 386.617C235.27 386.617 234.88 386.693 235.356 386.784ZM277.168 386.797C278.386 386.874 280.381 386.874 281.599 386.797C282.818 386.721 281.821 386.658 279.383 386.658C276.946 386.658 275.949 386.721 277.168 386.797ZM307.418 386.791C308.107 386.877 309.234 386.877 309.923 386.791C310.612 386.706 310.048 386.636 308.671 386.636C307.293 386.636 306.729 386.706 307.418 386.791ZM230.154 387.164C230.525 387.26 231.132 387.26 231.503 387.164C231.874 387.067 231.57 386.987 230.829 386.987C230.087 386.987 229.783 387.067 230.154 387.164ZM120.321 388.439C120.321 389.181 120.4 389.485 120.497 389.114C120.594 388.743 120.594 388.136 120.497 387.765C120.4 387.394 120.321 387.697 120.321 388.439ZM195.488 387.955C196.928 388.029 199.182 388.029 200.498 387.953C201.814 387.878 200.636 387.818 197.881 387.818C195.125 387.819 194.049 387.88 195.488 387.955ZM187.962 388.326C188.441 388.419 189.135 388.415 189.504 388.319C189.872 388.222 189.48 388.147 188.632 388.151C187.784 388.155 187.483 388.234 187.962 388.326ZM183.526 388.705C183.897 388.802 184.504 388.802 184.875 388.705C185.246 388.608 184.942 388.529 184.2 388.529C183.459 388.529 183.155 388.608 183.526 388.705ZM179.287 389.09C179.658 389.187 180.265 389.187 180.636 389.09C181.007 388.993 180.703 388.914 179.961 388.914C179.22 388.914 178.916 388.993 179.287 389.09ZM174.085 389.482C174.562 389.574 175.342 389.574 175.819 389.482C176.296 389.39 175.906 389.315 174.952 389.315C173.998 389.315 173.608 389.39 174.085 389.482Z" fill="#EF0454"/>
</svg>
