<svg width="238" height="215" viewBox="0 0 238 215" fill="none" xmlns="http://www.w3.org/2000/svg">
<path d="M119.267 95.8721V119.474L231.502 90.3003V66.6981" fill="#A63838"/>
<path d="M119.267 95.8721V119.474L231.502 90.3003V66.6981" stroke="#A63838" stroke-width="0.95944"/>
<path d="M119.267 95.8721V1.46326C144.189 1.46326 168.47 7.77496 188.632 19.4937C208.794 31.2125 223.801 47.7368 231.502 66.6982L119.267 95.8721Z" fill="#DD4B4B" stroke="#DD4B4B" stroke-width="0.95944"/>
<path d="M171.951 35.9685V36.7789H167.411C167.405 36.5759 167.438 36.3807 167.51 36.1933C167.625 35.8841 167.81 35.5796 168.062 35.2798C168.319 34.98 168.687 34.6333 169.168 34.2398C169.915 33.6276 170.419 33.1436 170.681 32.7875C170.944 32.4283 171.075 32.0895 171.075 31.7709C171.075 31.4367 170.955 31.1557 170.714 30.9277C170.477 30.6965 170.166 30.581 169.782 30.581C169.376 30.581 169.051 30.7028 168.807 30.9464C168.564 31.19 168.44 31.5273 168.437 31.9583L167.571 31.8693C167.63 31.2228 167.853 30.7309 168.241 30.3936C168.628 30.0532 169.148 29.883 169.801 29.883C170.46 29.883 170.981 30.0657 171.365 30.4311C171.749 30.7965 171.941 31.2493 171.941 31.7897C171.941 32.0645 171.885 32.3347 171.773 32.6001C171.66 32.8656 171.473 33.1451 171.211 33.4387C170.951 33.7323 170.519 34.1352 169.913 34.6474C169.407 35.0721 169.082 35.361 168.939 35.514C168.795 35.664 168.676 35.8154 168.582 35.9685H171.951ZM172.86 33.3918C172.86 32.5798 172.942 31.9271 173.108 31.4336C173.277 30.937 173.525 30.5544 173.853 30.2858C174.184 30.0173 174.599 29.883 175.099 29.883C175.468 29.883 175.791 29.9579 176.069 30.1078C176.347 30.2546 176.576 30.4686 176.757 30.7496C176.939 31.0276 177.081 31.368 177.184 31.7709C177.287 32.1707 177.338 32.711 177.338 33.3918C177.338 34.1976 177.256 34.8488 177.09 35.3454C176.925 35.8389 176.676 36.2214 176.345 36.4932C176.017 36.7618 175.602 36.896 175.099 36.896C174.437 36.896 173.917 36.6587 173.539 36.184C173.086 35.6124 172.86 34.6817 172.86 33.3918ZM173.726 33.3918C173.726 34.5193 173.858 35.2704 174.12 35.6452C174.385 36.0169 174.712 36.2027 175.099 36.2027C175.486 36.2027 175.811 36.0153 176.073 35.6405C176.339 35.2658 176.472 34.5162 176.472 33.3918C176.472 32.2613 176.339 31.5101 176.073 31.1385C175.811 30.7668 175.483 30.581 175.09 30.581C174.702 30.581 174.393 30.745 174.162 31.0729C173.872 31.4914 173.726 32.2644 173.726 33.3918ZM178.36 31.5601C178.36 31.0698 178.483 30.6528 178.73 30.3093C178.976 29.9657 179.334 29.7939 179.803 29.7939C180.234 29.7939 180.59 29.9485 180.871 30.2577C181.155 30.5638 181.297 31.0151 181.297 31.6116C181.297 32.1925 181.153 32.6407 180.866 32.9562C180.582 33.2685 180.23 33.4246 179.812 33.4246C179.396 33.4246 179.05 33.27 178.772 32.9608C178.497 32.6517 178.36 32.1847 178.36 31.5601ZM179.826 30.3749C179.617 30.3749 179.442 30.4654 179.301 30.6466C179.164 30.8277 179.095 31.1603 179.095 31.6444C179.095 32.0848 179.165 32.3956 179.306 32.5767C179.446 32.7547 179.62 32.8437 179.826 32.8437C180.038 32.8437 180.213 32.7532 180.351 32.572C180.491 32.3909 180.561 32.0598 180.561 31.5788C180.561 31.1354 180.491 30.8246 180.351 30.6466C180.21 30.4654 180.035 30.3749 179.826 30.3749ZM179.831 37.0319L183.588 29.7939H184.272L180.529 37.0319H179.831ZM182.801 35.1674C182.801 34.6739 182.924 34.257 183.171 33.9165C183.418 33.573 183.777 33.4012 184.248 33.4012C184.679 33.4012 185.035 33.5558 185.316 33.865C185.601 34.1711 185.743 34.6224 185.743 35.2189C185.743 35.7998 185.599 36.248 185.312 36.5634C185.028 36.8757 184.675 37.0319 184.253 37.0319C183.838 37.0319 183.491 36.8773 183.213 36.5681C182.938 36.2558 182.801 35.7889 182.801 35.1674ZM184.272 33.9821C184.059 33.9821 183.883 34.0727 183.742 34.2538C183.605 34.435 183.536 34.7676 183.536 35.2517C183.536 35.6889 183.607 35.9981 183.747 36.1793C183.888 36.3604 184.061 36.451 184.267 36.451C184.483 36.451 184.659 36.3604 184.796 36.1793C184.937 35.9981 185.007 35.6671 185.007 35.1861C185.007 34.7426 184.937 34.4319 184.796 34.2538C184.656 34.0727 184.481 33.9821 184.272 33.9821Z" fill="white"/>
<path d="M237.278 95.8722V119.474C237.278 134.373 232.871 149.06 224.416 162.335C215.961 175.61 203.699 187.096 188.632 195.853V172.251C203.699 163.493 215.961 152.008 224.416 138.733C232.871 125.458 237.278 110.771 237.278 95.8722Z" fill="#A12925" stroke="#A12925" stroke-width="0.95944"/>
<path d="M119.267 95.8722V119.474L188.632 195.853V172.251" fill="#A12925"/>
<path d="M119.267 95.8722V119.474L188.632 195.853V172.251" stroke="#A12925" stroke-width="0.95944"/>
<path d="M119.267 95.8721L231.502 66.6981C239.203 85.6595 239.203 106.085 231.502 125.046C223.801 144.007 208.794 160.532 188.632 172.25L119.267 95.8721Z" fill="#D63631" stroke="#D63631" stroke-width="0.95944"/>
<path d="M207.097 121.361V122.172H202.557C202.551 121.969 202.584 121.774 202.655 121.586C202.771 121.277 202.955 120.973 203.208 120.673C203.464 120.373 203.833 120.026 204.314 119.633C205.06 119.021 205.565 118.536 205.827 118.18C206.089 117.821 206.221 117.482 206.221 117.164C206.221 116.83 206.1 116.549 205.86 116.321C205.622 116.089 205.312 115.974 204.928 115.974C204.522 115.974 204.197 116.096 203.953 116.339C203.71 116.583 203.586 116.92 203.583 117.351L202.716 117.262C202.776 116.616 202.999 116.124 203.386 115.787C203.774 115.446 204.294 115.276 204.946 115.276C205.605 115.276 206.127 115.459 206.511 115.824C206.895 116.189 207.087 116.642 207.087 117.183C207.087 117.457 207.031 117.728 206.919 117.993C206.806 118.259 206.619 118.538 206.356 118.832C206.097 119.125 205.665 119.528 205.059 120.04C204.553 120.465 204.228 120.754 204.084 120.907C203.941 121.057 203.822 121.208 203.728 121.361H207.097ZM208.005 118.785C208.005 117.973 208.088 117.32 208.254 116.827C208.422 116.33 208.671 115.947 208.999 115.679C209.33 115.41 209.745 115.276 210.245 115.276C210.613 115.276 210.937 115.351 211.215 115.501C211.492 115.648 211.722 115.861 211.903 116.143C212.084 116.421 212.226 116.761 212.329 117.164C212.433 117.564 212.484 118.104 212.484 118.785C212.484 119.591 212.401 120.242 212.236 120.738C212.07 121.232 211.822 121.614 211.491 121.886C211.163 122.155 210.748 122.289 210.245 122.289C209.583 122.289 209.063 122.052 208.685 121.577C208.232 121.005 208.005 120.075 208.005 118.785ZM208.872 118.785C208.872 119.912 209.003 120.663 209.266 121.038C209.531 121.41 209.857 121.596 210.245 121.596C210.632 121.596 210.957 121.408 211.219 121.033C211.485 120.659 211.617 119.909 211.617 118.785C211.617 117.654 211.485 116.903 211.219 116.531C210.957 116.16 210.629 115.974 210.235 115.974C209.848 115.974 209.539 116.138 209.308 116.466C209.017 116.884 208.872 117.657 208.872 118.785ZM213.505 116.953C213.505 116.463 213.629 116.046 213.875 115.702C214.122 115.359 214.48 115.187 214.948 115.187C215.379 115.187 215.735 115.341 216.016 115.651C216.301 115.957 216.443 116.408 216.443 117.005C216.443 117.585 216.299 118.034 216.012 118.349C215.727 118.661 215.376 118.818 214.958 118.818C214.542 118.818 214.196 118.663 213.918 118.354C213.643 118.045 213.505 117.578 213.505 116.953ZM214.972 115.768C214.762 115.768 214.588 115.858 214.447 116.04C214.31 116.221 214.241 116.553 214.241 117.037C214.241 117.478 214.311 117.788 214.452 117.97C214.592 118.148 214.766 118.237 214.972 118.237C215.184 118.237 215.359 118.146 215.496 117.965C215.637 117.784 215.707 117.453 215.707 116.972C215.707 116.528 215.637 116.218 215.496 116.04C215.356 115.858 215.181 115.768 214.972 115.768ZM214.976 122.425L218.734 115.187H219.418L215.674 122.425H214.976ZM217.947 120.56C217.947 120.067 218.07 119.65 218.317 119.309C218.563 118.966 218.923 118.794 219.394 118.794C219.825 118.794 220.181 118.949 220.462 119.258C220.746 119.564 220.889 120.015 220.889 120.612C220.889 121.193 220.745 121.641 220.458 121.956C220.173 122.269 219.82 122.425 219.399 122.425C218.983 122.425 218.637 122.27 218.359 121.961C218.084 121.649 217.947 121.182 217.947 120.56ZM219.418 119.375C219.205 119.375 219.029 119.466 218.888 119.647C218.751 119.828 218.682 120.161 218.682 120.645C218.682 121.082 218.752 121.391 218.893 121.572C219.033 121.753 219.207 121.844 219.413 121.844C219.628 121.844 219.805 121.753 219.942 121.572C220.083 121.391 220.153 121.06 220.153 120.579C220.153 120.136 220.083 119.825 219.942 119.647C219.802 119.466 219.627 119.375 219.418 119.375Z" fill="white"/>
<path d="M119.267 95.8721V119.474L7.03186 90.3003V66.6981" fill="#4A4A4A"/>
<path d="M119.267 95.8721V119.474L7.03186 90.3003V66.6981" stroke="#4A4A4A" stroke-width="0.95944"/>
<path d="M119.267 95.8721L7.03186 66.6982C14.733 47.7368 29.74 31.2125 49.9019 19.4937C70.0638 7.77496 94.3456 1.46326 119.267 1.46326V95.8721Z" fill="#636363" stroke="#636363" stroke-width="0.95944"/>
<path d="M57.0547 35.9685V36.7789H52.5152C52.5089 36.5759 52.5417 36.3807 52.6136 36.1933C52.7291 35.8841 52.9134 35.5796 53.1664 35.2798C53.4225 34.98 53.791 34.6333 54.272 34.2398C55.0184 33.6276 55.5228 33.1436 55.7852 32.7875C56.0475 32.4283 56.1787 32.0895 56.1787 31.7709C56.1787 31.4367 56.0584 31.1557 55.8179 30.9277C55.5806 30.6965 55.2698 30.581 54.8857 30.581C54.4797 30.581 54.1549 30.7028 53.9112 30.9464C53.6676 31.19 53.5443 31.5273 53.5412 31.9583L52.6745 31.8693C52.7338 31.2228 52.9571 30.7309 53.3444 30.3936C53.7317 30.0532 54.2517 29.883 54.9044 29.883C55.5634 29.883 56.085 30.0657 56.4691 30.4311C56.8533 30.7965 57.0454 31.2493 57.0454 31.7897C57.0454 32.0645 56.9891 32.3347 56.8767 32.6001C56.7643 32.8656 56.5769 33.1451 56.3145 33.4387C56.0553 33.7323 55.6227 34.1352 55.0169 34.6474C54.5109 35.0721 54.1861 35.361 54.0424 35.514C53.8988 35.664 53.7801 35.8154 53.6864 35.9685H57.0547ZM57.9636 33.3918C57.9636 32.5798 58.0463 31.9271 58.2119 31.4336C58.3805 30.937 58.6288 30.5544 58.9567 30.2858C59.2878 30.0173 59.7032 29.883 60.2029 29.883C60.5714 29.883 60.8947 29.9579 61.1726 30.1078C61.4506 30.2546 61.6801 30.4686 61.8613 30.7496C62.0424 31.0276 62.1845 31.368 62.2876 31.7709C62.3907 32.1707 62.4422 32.711 62.4422 33.3918C62.4422 34.1976 62.3594 34.8488 62.1939 35.3454C62.0284 35.8389 61.7801 36.2214 61.449 36.4932C61.1211 36.7618 60.7057 36.896 60.2029 36.896C59.5408 36.896 59.0208 36.6587 58.6429 36.184C58.19 35.6124 57.9636 34.6817 57.9636 33.3918ZM58.8302 33.3918C58.8302 34.5193 58.9614 35.2704 59.2238 35.6452C59.4892 36.0169 59.8156 36.2027 60.2029 36.2027C60.5902 36.2027 60.915 36.0153 61.1773 35.6405C61.4428 35.2658 61.5755 34.5162 61.5755 33.3918C61.5755 32.2613 61.4428 31.5101 61.1773 31.1385C60.915 30.7668 60.587 30.581 60.1935 30.581C59.8062 30.581 59.497 30.745 59.2659 31.0729C58.9755 31.4914 58.8302 32.2644 58.8302 33.3918ZM63.4635 31.5601C63.4635 31.0698 63.5868 30.6528 63.8336 30.3093C64.0803 29.9657 64.4379 29.7939 64.9064 29.7939C65.3374 29.7939 65.6934 29.9485 65.9745 30.2577C66.2587 30.5638 66.4008 31.0151 66.4008 31.6116C66.4008 32.1925 66.2572 32.6407 65.9698 32.9562C65.6856 33.2685 65.3343 33.4246 64.9158 33.4246C64.5004 33.4246 64.1537 33.27 63.8757 32.9608C63.6009 32.6517 63.4635 32.1847 63.4635 31.5601ZM64.9298 30.3749C64.7206 30.3749 64.5457 30.4654 64.4051 30.6466C64.2677 30.8277 64.199 31.1603 64.199 31.6444C64.199 32.0848 64.2693 32.3956 64.4098 32.5767C64.5503 32.7547 64.7237 32.8437 64.9298 32.8437C65.1422 32.8437 65.3171 32.7532 65.4545 32.572C65.5951 32.3909 65.6653 32.0598 65.6653 31.5788C65.6653 31.1354 65.5951 30.8246 65.4545 30.6466C65.314 30.4654 65.1391 30.3749 64.9298 30.3749ZM64.9345 37.0319L68.6917 29.7939H69.3757L65.6325 37.0319H64.9345ZM67.9046 35.1674C67.9046 34.6739 68.028 34.257 68.2747 33.9165C68.5215 33.573 68.8806 33.4012 69.3522 33.4012C69.7832 33.4012 70.1393 33.5558 70.4204 33.865C70.7046 34.1711 70.8467 34.6224 70.8467 35.2189C70.8467 35.7998 70.703 36.248 70.4157 36.5634C70.1315 36.8757 69.7785 37.0319 69.3569 37.0319C68.9415 37.0319 68.5949 36.8773 68.3169 36.5681C68.0421 36.2558 67.9046 35.7889 67.9046 35.1674ZM69.3757 33.9821C69.1633 33.9821 68.9868 34.0727 68.8463 34.2538C68.7089 34.435 68.6401 34.7676 68.6401 35.2517C68.6401 35.6889 68.7104 35.9981 68.851 36.1793C68.9915 36.3604 69.1648 36.451 69.371 36.451C69.5865 36.451 69.7629 36.3604 69.9003 36.1793C70.0409 35.9981 70.1112 35.6671 70.1112 35.1861C70.1112 34.7426 70.0409 34.4319 69.9003 34.2538C69.7598 34.0727 69.5849 33.9821 69.3757 33.9821Z" fill="white"/>
<path d="M49.9019 172.251V195.853C34.8353 187.096 22.5733 175.61 14.1184 162.335C5.66359 149.06 1.25598 134.373 1.25598 119.474V95.8722C1.25598 110.771 5.66359 125.458 14.1184 138.733C22.5733 152.008 34.8353 163.493 49.9019 172.251" fill="#2C0503"/>
<path d="M49.9019 172.251V195.853C34.8353 187.096 22.5733 175.61 14.1184 162.335C5.66359 149.06 1.25598 134.373 1.25598 119.474V95.8722C1.25598 110.771 5.66359 125.458 14.1184 138.733C22.5733 152.008 34.8353 163.493 49.9019 172.251" stroke="#2C0503" stroke-width="0.95944"/>
<path d="M119.267 95.8722V119.474L49.902 195.853V172.251" fill="#2C0503"/>
<path d="M119.267 95.8722V119.474L49.902 195.853V172.251" stroke="#2C0503" stroke-width="0.95944"/>
<path d="M119.267 95.8721L49.9019 172.25C29.74 160.532 14.733 144.007 7.03186 125.046C-0.66931 106.085 -0.66931 85.6595 7.03186 66.6981L119.267 95.8721Z" fill="#3A0604" stroke="#3A0604" stroke-width="0.95944"/>
<path d="M21.9087 121.361V122.172H17.3692C17.3629 121.969 17.3957 121.774 17.4676 121.586C17.5831 121.277 17.7674 120.973 18.0204 120.673C18.2765 120.373 18.645 120.026 19.126 119.633C19.8724 119.021 20.3768 118.536 20.6392 118.18C20.9015 117.821 21.0327 117.482 21.0327 117.164C21.0327 116.83 20.9124 116.549 20.672 116.321C20.4346 116.089 20.1238 115.974 19.7397 115.974C19.3337 115.974 19.0089 116.096 18.7653 116.339C18.5216 116.583 18.3983 116.92 18.3952 117.351L17.5285 117.262C17.5878 116.616 17.8111 116.124 18.1984 115.787C18.5857 115.446 19.1057 115.276 19.7584 115.276C20.4174 115.276 20.939 115.459 21.3231 115.824C21.7073 116.189 21.8994 116.642 21.8994 117.183C21.8994 117.457 21.8431 117.728 21.7307 117.993C21.6183 118.259 21.4309 118.538 21.1685 118.832C20.9093 119.125 20.4768 119.528 19.8709 120.04C19.3649 120.465 19.0401 120.754 18.8964 120.907C18.7528 121.057 18.6341 121.208 18.5404 121.361H21.9087ZM22.8176 118.785C22.8176 117.973 22.9003 117.32 23.0659 116.827C23.2345 116.33 23.4828 115.947 23.8107 115.679C24.1418 115.41 24.5572 115.276 25.0569 115.276C25.4254 115.276 25.7487 115.351 26.0266 115.501C26.3046 115.648 26.5342 115.861 26.7153 116.143C26.8964 116.421 27.0385 116.761 27.1416 117.164C27.2447 117.564 27.2962 118.104 27.2962 118.785C27.2962 119.591 27.2134 120.242 27.0479 120.738C26.8824 121.232 26.6341 121.614 26.303 121.886C25.9751 122.155 25.5597 122.289 25.0569 122.289C24.3948 122.289 23.8748 122.052 23.4969 121.577C23.044 121.005 22.8176 120.075 22.8176 118.785ZM23.6843 118.785C23.6843 119.912 23.8154 120.663 24.0778 121.038C24.3432 121.41 24.6696 121.596 25.0569 121.596C25.4442 121.596 25.769 121.408 26.0313 121.033C26.2968 120.659 26.4295 119.909 26.4295 118.785C26.4295 117.654 26.2968 116.903 26.0313 116.531C25.769 116.16 25.441 115.974 25.0475 115.974C24.6602 115.974 24.3511 116.138 24.1199 116.466C23.8295 116.884 23.6843 117.657 23.6843 118.785ZM28.3175 116.953C28.3175 116.463 28.4409 116.046 28.6876 115.702C28.9343 115.359 29.2919 115.187 29.7604 115.187C30.1914 115.187 30.5474 115.341 30.8285 115.651C31.1127 115.957 31.2548 116.408 31.2548 117.005C31.2548 117.585 31.1112 118.034 30.8238 118.349C30.5396 118.661 30.1883 118.818 29.7698 118.818C29.3544 118.818 29.0077 118.663 28.7297 118.354C28.4549 118.045 28.3175 117.578 28.3175 116.953ZM29.7838 115.768C29.5746 115.768 29.3997 115.858 29.2591 116.04C29.1217 116.221 29.053 116.553 29.053 117.037C29.053 117.478 29.1233 117.788 29.2638 117.97C29.4044 118.148 29.5777 118.237 29.7838 118.237C29.9962 118.237 30.1711 118.146 30.3085 117.965C30.4491 117.784 30.5193 117.453 30.5193 116.972C30.5193 116.528 30.4491 116.218 30.3085 116.04C30.168 115.858 29.9931 115.768 29.7838 115.768ZM29.7885 122.425L33.5457 115.187H34.2297L30.4865 122.425H29.7885ZM32.7586 120.56C32.7586 120.067 32.882 119.65 33.1287 119.309C33.3755 118.966 33.7346 118.794 34.2062 118.794C34.6372 118.794 34.9933 118.949 35.2744 119.258C35.5586 119.564 35.7007 120.015 35.7007 120.612C35.7007 121.193 35.557 121.641 35.2697 121.956C34.9855 122.269 34.6325 122.425 34.2109 122.425C33.7955 122.425 33.4489 122.27 33.1709 121.961C32.8961 121.649 32.7586 121.182 32.7586 120.56ZM34.2297 119.375C34.0173 119.375 33.8408 119.466 33.7003 119.647C33.5629 119.828 33.4942 120.161 33.4942 120.645C33.4942 121.082 33.5644 121.391 33.705 121.572C33.8455 121.753 34.0188 121.844 34.225 121.844C34.4405 121.844 34.6169 121.753 34.7544 121.572C34.8949 121.391 34.9652 121.06 34.9652 120.579C34.9652 120.136 34.8949 119.825 34.7544 119.647C34.6138 119.466 34.4389 119.375 34.2297 119.375Z" fill="white"/>
<path d="M188.632 172.25V195.853C168.47 207.571 144.189 213.883 119.267 213.883C94.3455 213.883 70.0638 207.571 49.9019 195.853V172.25C70.0638 183.969 94.3455 190.281 119.267 190.281C144.189 190.281 168.47 183.969 188.632 172.25Z" fill="#8D2020" stroke="#8D2020" stroke-width="0.95944"/>
<path d="M119.267 95.8721L188.632 172.25C168.47 183.969 144.189 190.281 119.267 190.281C94.3455 190.281 70.0638 183.969 49.9019 172.25L119.267 95.8721Z" fill="#BC2B2B" stroke="#BC2B2B" stroke-width="0.95944"/>
<path d="M114.503 177.51V178.32H109.963C109.957 178.117 109.99 177.922 110.061 177.735C110.177 177.425 110.361 177.121 110.614 176.821C110.87 176.521 111.239 176.175 111.72 175.781C112.466 175.169 112.971 174.685 113.233 174.329C113.495 173.97 113.627 173.631 113.627 173.312C113.627 172.978 113.506 172.697 113.266 172.469C113.028 172.238 112.718 172.122 112.334 172.122C111.928 172.122 111.603 172.244 111.359 172.488C111.116 172.731 110.992 173.069 110.989 173.5L110.122 173.411C110.182 172.764 110.405 172.272 110.792 171.935C111.18 171.594 111.7 171.424 112.352 171.424C113.011 171.424 113.533 171.607 113.917 171.972C114.301 172.338 114.493 172.791 114.493 173.331C114.493 173.606 114.437 173.876 114.325 174.141C114.212 174.407 114.025 174.686 113.762 174.98C113.503 175.274 113.071 175.676 112.465 176.189C111.959 176.613 111.634 176.902 111.49 177.055C111.347 177.205 111.228 177.357 111.134 177.51H114.503ZM115.411 174.933C115.411 174.121 115.494 173.468 115.66 172.975C115.828 172.478 116.077 172.096 116.405 171.827C116.736 171.559 117.151 171.424 117.651 171.424C118.019 171.424 118.343 171.499 118.621 171.649C118.898 171.796 119.128 172.01 119.309 172.291C119.49 172.569 119.632 172.909 119.735 173.312C119.839 173.712 119.89 174.252 119.89 174.933C119.89 175.739 119.807 176.39 119.642 176.887C119.476 177.38 119.228 177.763 118.897 178.034C118.569 178.303 118.154 178.437 117.651 178.437C116.989 178.437 116.469 178.2 116.091 177.725C115.638 177.154 115.411 176.223 115.411 174.933ZM116.278 174.933C116.278 176.061 116.409 176.812 116.672 177.186C116.937 177.558 117.263 177.744 117.651 177.744C118.038 177.744 118.363 177.557 118.625 177.182C118.891 176.807 119.023 176.057 119.023 174.933C119.023 173.803 118.891 173.051 118.625 172.68C118.363 172.308 118.035 172.122 117.641 172.122C117.254 172.122 116.945 172.286 116.714 172.614C116.423 173.033 116.278 173.806 116.278 174.933ZM120.911 173.101C120.911 172.611 121.035 172.194 121.281 171.851C121.528 171.507 121.886 171.335 122.354 171.335C122.785 171.335 123.141 171.49 123.422 171.799C123.707 172.105 123.849 172.556 123.849 173.153C123.849 173.734 123.705 174.182 123.418 174.497C123.133 174.81 122.782 174.966 122.364 174.966C121.948 174.966 121.602 174.811 121.324 174.502C121.049 174.193 120.911 173.726 120.911 173.101ZM122.378 171.916C122.168 171.916 121.994 172.007 121.853 172.188C121.716 172.369 121.647 172.702 121.647 173.186C121.647 173.626 121.717 173.937 121.858 174.118C121.998 174.296 122.172 174.385 122.378 174.385C122.59 174.385 122.765 174.294 122.902 174.113C123.043 173.932 123.113 173.601 123.113 173.12C123.113 172.677 123.043 172.366 122.902 172.188C122.762 172.007 122.587 171.916 122.378 171.916ZM122.382 178.573L126.14 171.335H126.824L123.08 178.573H122.382ZM125.353 176.709C125.353 176.215 125.476 175.798 125.723 175.458C125.969 175.114 126.329 174.942 126.8 174.942C127.231 174.942 127.587 175.097 127.868 175.406C128.152 175.712 128.295 176.164 128.295 176.76C128.295 177.341 128.151 177.789 127.864 178.105C127.579 178.417 127.226 178.573 126.805 178.573C126.389 178.573 126.043 178.419 125.765 178.109C125.49 177.797 125.353 177.33 125.353 176.709ZM126.824 175.523C126.611 175.523 126.435 175.614 126.294 175.795C126.157 175.976 126.088 176.309 126.088 176.793C126.088 177.23 126.158 177.539 126.299 177.721C126.439 177.902 126.613 177.992 126.819 177.992C127.034 177.992 127.211 177.902 127.348 177.721C127.489 177.539 127.559 177.208 127.559 176.727C127.559 176.284 127.489 175.973 127.348 175.795C127.208 175.614 127.033 175.523 126.824 175.523Z" fill="white"/>
</svg>
