<svg width="721" height="400" aria-label="A chart." style="overflow: hidden;"><defs id="_ABSTRACT_RENDERER_ID_3"><filter id="_ABSTRACT_RENDERER_ID_4"><feGaussianBlur in="SourceAlpha" stdDeviation="2"></feGaussianBlur><feOffset dx="1" dy="1"></feOffset><feComponentTransfer><feFuncA type="linear" slope="0.1"></feFuncA></feComponentTransfer><feMerge><feMergeNode></feMergeNode><feMergeNode in="SourceGraphic"></feMergeNode></feMerge></filter></defs><g><rect x="195" y="357" width="332" height="10" stroke="none" stroke-width="0" fill-opacity="0" fill="#ffffff"></rect><g column-id="Liquidity"><rect x="195" y="357" width="51" height="10" stroke="none" stroke-width="0" fill-opacity="0" fill="#ffffff"></rect><g><text text-anchor="start" x="209" y="365.5" font-family="Arial" font-size="10" stroke="none" stroke-width="0" fill="#000000">Liquidity</text></g><circle cx="200" cy="362" r="5" stroke="none" stroke-width="0" fill="#dd4b4b"></circle></g><g column-id="LGE"><rect x="262" y="357" width="34" height="10" stroke="none" stroke-width="0" fill-opacity="0" fill="#ffffff"></rect><g><text text-anchor="start" x="276" y="365.5" font-family="Arial" font-size="10" stroke="none" stroke-width="0" fill="#000000">LGE</text></g><circle cx="267" cy="362" r="5" stroke="none" stroke-width="0" fill="#d63631"></circle></g><g column-id="Burns"><rect x="312" y="357" width="40" height="10" stroke="none" stroke-width="0" fill-opacity="0" fill="#ffffff"></rect><g><text text-anchor="start" x="326" y="365.5" font-family="Arial" font-size="10" stroke="none" stroke-width="0" fill="#000000">Burns</text></g><circle cx="317" cy="362" r="5" stroke="none" stroke-width="0" fill="#bc2b2b"></circle></g><g column-id="Philanthropy"><rect x="368" y="357" width="70" height="10" stroke="none" stroke-width="0" fill-opacity="0" fill="#ffffff"></rect><g><text text-anchor="start" x="382" y="365.5" font-family="Arial" font-size="10" stroke="none" stroke-width="0" fill="#000000">Philanthropy</text></g><circle cx="373" cy="362" r="5" stroke="none" stroke-width="0" fill="#3a0604"></circle></g><g column-id="Wall of Fame"><rect x="454" y="357" width="73" height="10" stroke="none" stroke-width="0" fill-opacity="0" fill="#ffffff"></rect><g><text text-anchor="start" x="468" y="365.5" font-family="Arial" font-size="10" stroke="none" stroke-width="0" fill="#000000">Wall of Fame</text></g><circle cx="459" cy="362" r="5" stroke="none" stroke-width="0" fill="#636363"></circle></g></g><g><path d="M361,188.7L361,213.29999999999998L477.97995150430387,182.89272775350517L477.97995150430387,158.29272775350518" stroke="#a63838" stroke-width="1" fill="#a63838"></path><path d="M361,188.7L361,90.29999999999998A123,98.4,0,0,1,477.97995150430387,158.29272775350518L361,188.7A0,0,0,0,0,361,188.7" stroke="#dd4b4b" stroke-width="1" fill="#dd4b4b"></path><text text-anchor="start" x="410.8766688467093" y="127.7281085119939" font-family="Arial" font-size="10" stroke="none" stroke-width="0" fill="#ffffff">20%</text></g><g><path d="M484,188.7L484,213.29999999999998A123,98.4,0,0,1,433.2975860319742,292.9072722464948L433.2975860319742,268.3072722464948A123,98.4,0,0,0,484,188.7" stroke="#a12925" stroke-width="1" fill="#a12925"></path><path d="M361,188.7L361,213.29999999999998L433.2975860319742,292.9072722464948L433.2975860319742,268.3072722464948" stroke="#a12925" stroke-width="1" fill="#a12925"></path><path d="M361,188.7L477.97995150430387,158.29272775350518A123,98.4,0,0,1,433.2975860319742,268.3072722464948L361,188.7A0,0,0,0,0,361,188.7" stroke="#d63631" stroke-width="1" fill="#d63631"></path><text text-anchor="start" x="447.50832667701803" y="216.73096572571063" font-family="Arial" font-size="10" stroke="none" stroke-width="0" fill="#ffffff">20%</text></g><g><path d="M361,188.7L361,213.29999999999998L244.02004849569613,182.8927277535051L244.02004849569613,158.29272775350512" stroke="#4a4a4a" stroke-width="1" fill="#4a4a4a"></path><path d="M361,188.7L244.02004849569613,158.29272775350512A123,98.4,0,0,1,361,90.29999999999998L361,188.7A0,0,0,0,0,361,188.7" stroke="#636363" stroke-width="1" fill="#636363"></path><text text-anchor="start" x="291.1233311532906" y="127.72810851199391" font-family="Arial" font-size="10" stroke="none" stroke-width="0" fill="#ffffff">20%</text></g><g><path d="M288.70241396802584,268.3072722464948L288.70241396802584,292.9072722464948A123,98.4,0,0,1,238,213.29999999999998L238,188.7A123,98.4,0,0,0,288.70241396802584,268.3072722464948" stroke="#2c0503" stroke-width="1" fill="#2c0503"></path><path d="M361,188.7L361,213.29999999999998L288.70241396802584,292.9072722464948L288.70241396802584,268.3072722464948" stroke="#2c0503" stroke-width="1" fill="#2c0503"></path><path d="M361,188.7L288.70241396802584,268.3072722464948A123,98.4,0,0,1,244.02004849569613,158.29272775350512L361,188.7A0,0,0,0,0,361,188.7" stroke="#3a0604" stroke-width="1" fill="#3a0604"></path><text text-anchor="start" x="254.49167332298197" y="216.73096572571066" font-family="Arial" font-size="10" stroke="none" stroke-width="0" fill="#ffffff">20%</text></g><g><path d="M433.2975860319742,268.3072722464948L433.2975860319742,292.9072722464948A123,98.4,0,0,1,288.7024139680258,292.9072722464948L288.7024139680258,268.3072722464948A123,98.4,0,0,0,433.2975860319742,268.3072722464948" stroke="#8d2020" stroke-width="1" fill="#8d2020"></path><path d="M361,188.7L433.2975860319742,268.3072722464948A123,98.4,0,0,1,288.7024139680258,268.3072722464948L361,188.7A0,0,0,0,0,361,188.7" stroke="#bc2b2b" stroke-width="1" fill="#bc2b2b"></path><text text-anchor="start" x="351" y="275.25316878193394" font-family="Arial" font-size="10" stroke="none" stroke-width="0" fill="#ffffff">20%</text></g><g></g></svg>